<svg width="350" height="145" viewBox="0 0 350 145" fill="none" xmlns="http://www.w3.org/2000/svg">
<path d="M12.4288 44.703C12.899 45.0181 13.3693 45.4906 14.1529 46.1207C14.7799 46.7507 15.5636 47.3808 16.504 47.8533C17.7579 48.7984 19.1685 49.4285 20.4224 49.901C21.6763 50.3736 23.0869 50.6886 24.4976 50.6886C25.7514 50.6886 26.8486 50.5311 27.789 50.2161C28.7294 49.901 29.3564 49.586 29.8266 49.1135C30.2968 48.6409 30.767 48.0109 30.9237 47.3808C31.0805 46.7507 31.2372 46.1207 31.2372 45.3331C31.2372 44.5455 30.9238 43.7579 30.2968 43.1279C29.6699 42.4978 28.8862 41.8677 28.1025 41.3952C27.1621 40.9226 26.3784 40.4501 25.438 40.1351C24.4976 39.82 23.7139 39.505 22.9302 39.3475C19.7955 38.2449 17.1309 37.1423 14.9366 35.8821C12.5856 34.622 10.7047 33.2044 9.13738 31.7867C7.57001 30.3691 6.47285 28.6364 5.68917 26.7462C4.90549 24.856 4.59201 22.8083 4.59201 20.6031C4.59201 18.2404 5.06223 16.0352 6.00265 14.145C6.94306 12.2548 8.35369 10.5221 10.0778 9.10446C11.8019 7.68682 13.9962 6.58421 16.504 5.95414C19.0118 5.16656 21.833 4.85153 24.9678 4.85153C27.3188 4.85153 29.5131 5.16656 31.7074 5.63911C33.9017 6.11166 35.9393 7.05675 37.9769 8.15936C38.6038 8.63191 39.3875 9.26197 40.1712 9.73452C40.9549 10.3646 41.5818 10.8371 42.2088 11.3097C42.8357 11.7822 43.3059 12.4123 43.6194 12.7273C43.9329 13.1999 44.0896 13.5149 44.0896 13.9874C44.0896 14.46 43.9329 14.6175 43.7761 14.9325C43.6194 15.2476 43.3059 15.5626 42.9925 15.8776L37.1932 22.1783C36.723 22.6508 36.2528 22.8083 35.9393 22.8083C35.6258 22.8083 35.3124 22.6508 34.9989 22.4933C34.6854 22.3358 34.372 22.0207 34.0585 21.7057L33.745 21.3907C33.2748 20.9181 32.6479 20.4456 32.0209 19.973C31.394 19.5005 30.767 19.028 29.9833 18.7129C29.1996 18.3979 28.5727 18.0829 27.789 17.7678C27.0053 17.4528 26.2217 17.4528 25.438 17.4528C24.6543 17.4528 23.8706 17.4528 23.0869 17.6103C22.3032 17.7678 21.6763 17.9253 21.2061 18.2404C20.5791 18.5554 20.2657 19.028 19.7955 19.5005C19.482 19.973 19.3252 20.6031 19.3252 21.3907C19.3252 22.1783 19.482 22.8083 19.7955 23.2809C20.1089 23.7534 20.7359 24.226 21.3628 24.6985C22.1465 25.1711 22.9302 25.6436 24.0273 25.9586C25.1245 26.4312 26.3784 26.7462 27.789 27.2188C30.4535 28.1639 32.9613 29.109 35.3124 30.0541C37.6634 30.9991 39.5443 32.2593 41.2684 33.5194C42.9925 34.937 44.2464 36.5122 45.1868 38.4024C46.1272 40.2926 46.5974 42.4978 46.5974 45.1756C46.5974 48.0108 45.9705 50.5311 44.8733 52.8938C43.7761 55.2566 42.2088 57.1468 40.1712 58.7219C38.1336 60.2971 35.7826 61.5572 33.1181 62.5023C30.4535 63.4474 27.4755 63.7624 24.3408 63.7624C21.3628 63.7624 18.5416 63.2899 15.7203 62.1873C12.8991 61.0847 10.2345 59.667 7.72674 57.9343C6.62959 57.1468 5.84591 56.5167 5.06223 55.7291C4.43528 54.9415 3.80833 54.469 3.33812 53.9965L3.18139 53.8389V53.6814V53.5239C2.55444 52.8938 2.24097 52.4213 2.24097 51.9487C2.24097 51.4762 2.55444 51.0037 3.18139 50.5311L9.76432 44.2305C10.2345 43.9154 10.7047 43.6004 11.0182 43.6004C11.1749 43.6004 11.4884 43.6004 11.8019 43.7579C11.8019 44.2305 12.1154 44.388 12.4288 44.703Z" fill="black"/>
<path d="M85.085 48.2071C85.3936 47.8929 85.7022 47.7357 86.0108 47.7357C86.3194 47.7357 86.628 47.5786 86.7823 47.5786C87.2453 47.5786 87.5539 47.7357 88.0168 47.8929C88.3254 48.05 88.7883 48.5214 89.0969 48.9927L93.2632 55.4348C93.4175 55.592 93.5718 55.9062 93.5718 56.0633C93.7261 56.3776 93.7261 56.5347 93.7261 56.6918C93.7261 57.3203 93.5718 57.7917 93.1089 58.106C92.646 58.4202 92.3374 58.7344 91.8744 59.0487C89.8685 60.4628 87.5539 61.7198 85.085 62.5054C82.6161 63.4482 79.9929 63.7624 77.3697 63.7624C75.0551 63.7624 72.8948 63.4482 70.8888 62.8197C68.8828 62.1912 66.8769 61.4056 65.0252 60.3057C63.1735 59.2058 61.6305 57.9488 60.0874 56.3776C58.5443 54.8063 57.3099 53.2351 56.2298 51.3496C55.1496 49.4641 54.3781 47.4215 53.7609 45.2217C53.1436 43.022 52.835 40.8223 52.835 38.4654C52.835 36.1085 53.1436 33.9088 53.7609 31.709C54.3781 29.5093 55.1496 27.4667 56.2298 25.5812C57.3099 23.6957 58.5443 21.9673 60.0874 20.5532C61.6305 18.982 63.3278 17.725 65.0252 16.6251C66.8769 15.5252 68.7285 14.7396 70.8888 14.1111C73.0491 13.4826 75.2094 13.1684 77.3697 13.1684C80.1472 13.1684 82.6161 13.4826 84.9307 14.2682C87.2453 15.0539 89.4055 16.1537 91.4115 17.5678L91.2572 17.4107C91.8744 17.725 92.183 18.1963 92.646 18.5106C93.1089 18.8248 93.1089 19.4533 93.1089 20.239C93.1089 20.7103 92.9546 21.1817 92.646 21.6531L89.2512 27.4667C88.4797 28.7237 87.7082 29.3522 86.628 29.3522C86.4737 29.3522 86.1651 29.3522 85.8565 29.1951C85.5479 29.0379 85.2393 28.8808 84.7764 28.5666C83.6962 27.7809 82.4618 27.1524 81.2273 26.6811C79.9929 26.2097 78.6041 25.8954 77.2154 25.8954C75.6723 25.8954 74.1293 26.2097 72.8948 26.8382C71.5061 27.4667 70.4259 28.4094 69.5001 29.5093C68.5742 30.6092 67.8027 31.8662 67.3398 33.4374C66.8769 35.0087 66.5683 36.4228 66.5683 38.1511C66.5683 39.8795 66.8769 41.4508 67.3398 42.8649C67.8027 44.279 68.5742 45.536 69.5001 46.6359C70.4259 47.7357 71.5061 48.5214 72.8948 49.1499C74.2836 49.7784 75.6723 50.0926 77.2154 50.0926C78.6041 50.0926 79.9929 49.7784 81.2273 49.307C82.7704 49.6212 83.8505 48.9927 85.085 48.2071Z" fill="black"/>
<path d="M116.208 19.6111C116.683 18.8267 117.315 18.1991 118.263 17.4147C119.054 16.7871 120.16 16.1595 121.267 15.532C122.373 15.0613 123.638 14.5907 125.06 14.12C126.483 13.8062 127.905 13.6493 129.328 13.6493C132.331 13.6493 134.86 14.2769 136.915 15.3751C138.97 16.4733 140.867 18.0422 142.29 19.9249C143.712 21.8075 144.661 24.1609 145.451 26.6711C146.083 29.3382 146.399 32.0053 146.399 34.9862V60.0884C146.399 61.0297 146.241 61.8142 145.767 62.2849C145.293 62.7555 144.661 63.0693 143.712 63.0693H134.86C133.754 63.0693 132.964 62.9124 132.647 62.4417C132.331 61.9711 132.015 61.3435 132.015 60.2453V35.1431C132.015 34.0449 131.857 32.9467 131.383 32.0053C130.909 31.064 130.435 30.2795 129.644 29.4951C128.854 28.8675 128.063 28.24 127.115 27.7693C126.167 27.2987 125.06 27.1418 124.112 27.1418C123.163 27.1418 122.215 27.2987 121.425 27.7693C120.476 28.0831 119.686 28.7107 119.054 29.3382C118.421 29.9658 117.789 30.7502 117.315 31.8484C116.841 32.7898 116.524 33.888 116.524 34.9862V60.2453C116.524 60.716 116.366 61.1866 116.208 61.5004C116.05 61.9711 115.734 62.2849 115.418 62.4417C115.102 62.5986 114.786 62.7555 114.47 62.9124C114.153 62.9124 113.837 63.0693 113.521 63.0693H104.511C103.405 63.0693 102.614 62.7555 102.14 62.2849C101.508 61.8142 101.35 61.1866 101.35 60.2453V29.0244V28.7107V17.2578V17.1009V2.98089C101.35 2.03955 101.666 1.412 102.14 0.941333C102.614 0.313778 103.405 0 104.511 0H113.205C113.837 0 114.47 0.156889 115.102 0.627555C115.576 0.784444 115.734 1.25511 115.892 1.56889C116.05 2.03955 116.208 2.35333 116.208 2.824V19.6111Z" fill="black"/>
<path d="M154.023 38.8896C154.023 36.5578 154.338 34.3814 154.969 32.205C155.599 30.0287 156.387 28.0077 157.491 26.1423C158.594 24.2768 159.855 22.5668 161.431 21.1677C163.007 19.6132 164.583 18.3695 166.475 17.2814C168.366 16.1932 170.415 15.4159 172.622 14.7941C174.828 14.1723 177.035 13.8614 179.399 13.8614C182.866 13.8614 186.176 14.4832 189.171 15.7268C192.166 16.9705 194.845 18.8359 197.209 21.0123C199.416 23.1886 201.307 25.8314 202.568 28.9405C203.829 31.8941 204.617 35.3141 204.617 38.7341C204.617 41.0659 204.302 43.2423 203.671 45.4187C203.041 47.595 202.253 49.616 201.15 51.4814C200.046 53.3469 198.785 55.0569 197.209 56.456C195.633 58.0105 194.057 59.2542 192.166 60.3423C190.274 61.4305 188.225 62.2078 186.176 62.8296C183.97 63.4514 181.763 63.7623 179.399 63.7623C177.035 63.7623 174.828 63.4514 172.622 62.8296C170.415 62.2078 168.366 61.4305 166.475 60.3423C164.583 59.2542 162.849 58.0105 161.431 56.456C159.855 54.9014 158.594 53.3469 157.491 51.4814C156.387 49.616 155.599 47.595 154.969 45.4187C154.338 43.2423 154.023 41.2214 154.023 38.8896ZM168.051 38.8896C168.051 40.5996 168.366 42.1541 168.839 43.5532C169.312 44.9523 170.1 46.196 171.045 47.2841C171.991 48.3723 173.252 49.1496 174.513 49.7714C175.774 50.3932 177.508 50.7041 179.084 50.7041C180.817 50.7041 182.236 50.3932 183.654 49.7714C185.073 49.1496 186.176 48.3723 187.122 47.2841C188.068 46.196 188.856 44.9523 189.329 43.5532C189.801 42.1541 190.117 40.5996 190.117 38.8896C190.117 37.335 189.801 35.7805 189.329 34.2259C188.856 32.8268 188.068 31.4278 187.122 30.3396C186.176 29.2514 185.073 28.3187 183.654 27.6968C182.236 27.075 180.817 26.7641 179.084 26.7641C177.35 26.7641 175.774 27.075 174.513 27.6968C173.094 28.3187 171.991 29.2514 171.045 30.3396C170.1 31.4278 169.312 32.6714 168.839 34.2259C168.366 35.625 168.051 37.1796 168.051 38.8896Z" fill="black"/>
<path d="M210.855 38.8896C210.855 36.5578 211.17 34.3814 211.8 32.205C212.431 30.0287 213.219 28.0077 214.322 26.1423C215.426 24.2768 216.687 22.5668 218.263 21.1677C219.839 19.6132 221.415 18.3695 223.306 17.2814C225.198 16.1932 227.247 15.4159 229.453 14.7941C231.66 14.1723 233.866 13.8614 236.231 13.8614C239.698 13.8614 243.008 14.4832 246.003 15.7268C248.997 16.9705 251.677 18.8359 254.041 21.0123C256.248 23.1886 258.139 25.8314 259.4 28.9405C260.661 31.8941 261.449 35.3141 261.449 38.7341C261.449 41.0659 261.134 43.2423 260.503 45.4187C259.873 47.595 259.085 49.616 257.981 51.4814C256.878 53.3469 255.617 55.0569 254.041 56.456C252.465 58.0105 250.889 59.2542 248.997 60.3423C247.106 61.4305 245.057 62.2078 243.008 62.8296C240.801 63.4514 238.595 63.7623 236.231 63.7623C233.866 63.7623 231.66 63.4514 229.453 62.8296C227.247 62.2078 225.198 61.4305 223.306 60.3423C221.415 59.2542 219.681 58.0105 218.263 56.456C216.687 54.9014 215.426 53.3469 214.322 51.4814C213.219 49.616 212.431 47.595 211.8 45.4187C211.17 43.2423 210.855 41.2214 210.855 38.8896ZM224.882 38.8896C224.882 40.5996 225.198 42.1541 225.671 43.5532C226.143 44.9523 226.931 46.196 227.877 47.2841C228.823 48.3723 230.084 49.1496 231.345 49.7714C232.606 50.3932 234.339 50.7041 235.915 50.7041C237.649 50.7041 239.068 50.3932 240.486 49.7714C241.905 49.1496 243.008 48.3723 243.954 47.2841C244.899 46.196 245.687 44.9523 246.16 43.5532C246.633 42.1541 246.948 40.5996 246.948 38.8896C246.948 37.335 246.633 35.7805 246.16 34.2259C245.687 32.8268 244.899 31.4278 243.954 30.3396C243.008 29.2514 241.905 28.3187 240.486 27.6968C239.068 27.075 237.649 26.7641 235.915 26.7641C234.182 26.7641 232.606 27.075 231.345 27.6968C229.926 28.3187 228.823 29.2514 227.877 30.3396C226.931 31.4278 226.143 32.6714 225.671 34.2259C225.198 35.7805 224.882 37.1796 224.882 38.8896Z" fill="black"/>
<path d="M269.073 2.81699C269.073 2.03449 269.229 1.252 269.699 0.782498C270.168 0.156499 270.794 0 271.733 0H281.123C281.436 0 281.593 0 281.906 0.1565C282.219 0.312999 282.375 0.469499 282.688 0.782498C283.001 1.0955 283.158 1.4085 283.314 1.72149C283.471 2.03449 283.627 2.50399 283.627 2.97349V60.0958C283.627 61.0348 283.314 61.8173 282.845 62.2868C282.219 62.7563 281.593 63.0693 280.654 63.0693H271.733C270.794 63.0693 270.012 62.7563 269.699 62.2868C269.386 61.8173 269.073 61.0348 269.073 60.0958V2.81699Z" fill="black"/>
<path d="M0 88.4666C0 87.9982 0.155092 87.5298 0.465277 87.2176C0.775462 86.9053 1.24074 86.7492 1.70602 86.7492H42.4953C42.9606 86.7492 43.4259 86.9053 43.7361 87.2176C44.0462 87.5298 44.3564 87.8421 44.3564 88.4666V97.9906C44.3564 98.459 44.2013 98.9274 43.8912 99.2397C43.581 99.708 43.1157 99.8642 42.4953 99.8642H29.4676V141.707C29.4676 142.176 29.3125 142.644 29.0023 142.956C28.6921 143.269 28.2268 143.581 27.7615 143.581H16.5949C16.1296 143.581 15.8194 143.425 15.3541 143.112C15.044 142.8 14.7338 142.332 14.7338 141.863V99.8642H1.70602C1.24074 99.8642 0.775462 99.708 0.465277 99.3958C0.155092 99.0835 0 98.6151 0 97.9906V88.4666Z" fill="black"/>
<path d="M52.6732 97.4578C52.6732 96.9856 52.8297 96.5133 52.9862 96.1985C53.1427 95.8837 53.4557 95.5688 53.7687 95.254C54.0817 95.0966 54.3947 94.7818 54.7077 94.7818C55.0207 94.7818 55.4902 94.6243 55.8032 94.6243H61.5937C62.2197 94.6243 62.6892 94.7818 63.1587 95.254C63.4717 95.5688 63.9412 96.1985 64.0977 96.6707C64.4107 97.3004 64.5672 97.9301 64.8802 98.5597C65.0367 99.3468 65.3497 99.9765 65.6627 100.606C66.4452 99.8191 67.2277 98.8746 68.0102 98.0875C68.7927 97.3004 69.5752 96.5133 70.5142 95.8837C71.4532 95.254 72.3922 94.7817 73.3312 94.3095C74.4267 93.8372 75.5221 93.6798 76.9306 93.6798C78.3391 93.6798 79.5911 93.8373 80.6866 93.9947C81.7821 94.1521 82.7211 94.4669 83.8166 94.9392C84.7556 95.4114 85.6946 95.8837 86.6336 96.5133C87.5726 97.143 88.6681 97.7727 89.7636 98.7172C90.8591 99.3468 91.4851 100.134 91.4851 100.921C91.4851 101.551 91.3286 102.18 90.8591 102.81L86.9466 108.949C86.3206 109.894 85.3816 110.523 84.4426 110.523C83.9731 110.523 83.3471 110.366 82.7211 110.051C81.6256 108.949 80.5301 108.162 79.4346 107.69C78.3391 107.218 76.9306 106.903 75.5221 106.903C74.5831 106.903 73.6442 107.06 72.8617 107.375C72.0792 107.69 71.4532 108.005 70.8272 108.634C70.2012 109.107 69.5752 109.736 69.1057 110.523C68.6362 111.31 68.0102 112.098 67.5407 112.885V140.747C67.5407 141.692 67.2277 142.479 66.7582 142.951C66.2887 143.266 65.5062 143.581 64.4107 143.581H55.8032C53.7687 143.581 52.8297 142.636 52.8297 140.59V97.4578H52.6732Z" fill="black"/>
<path d="M145.545 141.172C145.545 141.647 145.545 141.963 145.387 142.437C145.229 142.912 144.913 143.228 144.597 143.386C144.281 143.702 143.965 143.86 143.649 143.86C143.333 143.86 142.859 144.176 142.543 144.176H134.959C134.485 144.176 134.011 144.176 133.695 144.018C133.379 143.86 133.063 143.702 132.905 143.386C132.747 143.07 132.589 142.754 132.431 142.437C132.273 142.121 132.115 141.647 131.957 141.172L131.325 139.433C130.693 140.066 129.903 140.856 128.955 141.489C128.007 142.121 127.059 142.754 125.953 143.228C124.847 143.702 123.741 144.176 122.477 144.493C121.213 144.809 119.949 144.967 118.685 144.967C116.316 144.967 114.104 144.651 111.892 144.018C109.68 143.386 107.784 142.595 105.888 141.489C103.992 140.382 102.254 139.117 100.832 137.536C99.2521 135.955 97.9882 134.374 96.8822 132.477C95.7763 130.579 94.9863 128.524 94.3543 126.31C93.8803 124.255 93.5643 122.042 93.5643 119.67C93.5643 116.034 94.1963 112.713 95.4603 109.709C96.7242 106.705 98.6202 104.017 100.832 101.646C103.044 99.4324 105.73 97.5351 108.89 96.2702C111.892 95.0054 115.21 94.373 118.685 94.373C120.265 94.373 121.845 94.5311 123.109 94.8473C124.531 95.1635 125.795 95.6378 126.901 96.2702C128.007 96.9027 129.113 97.6932 130.061 98.4837C131.009 99.2743 131.799 100.223 132.431 101.33L133.537 97.8513C133.853 97.2189 134.011 96.7445 134.169 96.2702C134.327 95.7959 134.485 95.6378 134.643 95.3216C134.801 95.0054 135.117 95.0054 135.433 95.0054C135.749 95.0054 136.065 94.8473 136.697 94.8473H142.543C142.859 94.8473 143.175 94.8473 143.491 95.0054C143.807 95.1635 144.281 95.3216 144.439 95.4797C144.755 95.7959 145.071 96.1121 145.229 96.4283C145.387 96.7446 145.387 97.2189 145.387 97.6932V141.172H145.545ZM107.468 119.67C107.468 121.409 107.784 122.99 108.258 124.413C108.732 125.836 109.522 127.101 110.47 128.208C111.418 129.314 112.682 130.105 113.946 130.737C115.21 131.37 116.79 131.686 118.527 131.686C120.265 131.686 121.845 131.37 123.267 130.737C124.689 130.105 126.111 129.314 127.059 128.208C128.007 127.101 128.955 125.836 129.587 124.413C130.219 122.99 130.535 121.409 130.535 119.67C130.535 118.089 130.219 116.508 129.587 114.927C128.955 113.346 128.165 112.081 127.059 110.974C125.953 109.867 124.689 108.919 123.267 108.286C121.845 107.654 120.107 107.338 118.527 107.338C116.79 107.338 115.368 107.654 113.946 108.286C112.524 108.919 111.418 109.867 110.47 110.974C109.522 112.081 108.732 113.346 108.258 114.927C107.784 116.35 107.468 117.931 107.468 119.67Z" fill="black"/>
<path d="M185.965 128.719C186.279 128.404 186.593 128.247 186.906 128.247C187.22 128.247 187.534 128.09 187.691 128.09C188.162 128.09 188.476 128.247 188.946 128.404C189.26 128.561 189.731 129.033 190.045 129.504L194.282 135.946C194.439 136.103 194.596 136.418 194.596 136.575C194.753 136.889 194.753 137.046 194.753 137.203C194.753 137.832 194.596 138.303 194.125 138.617C193.654 138.932 193.34 139.246 192.869 139.56C190.829 140.974 188.476 142.231 185.965 143.017C183.454 143.96 180.787 144.274 178.119 144.274C175.765 144.274 173.568 143.96 171.528 143.331C169.331 142.703 167.448 141.917 165.565 140.817C163.682 139.717 162.113 138.46 160.544 136.889C158.974 135.318 157.719 133.747 156.621 131.861C155.522 129.976 154.738 127.933 154.11 125.733C153.482 123.533 153.168 121.334 153.168 118.977C153.168 116.62 153.482 114.42 154.11 112.221C154.738 110.021 155.522 107.978 156.621 106.093C157.719 104.207 158.974 102.479 160.544 101.065C162.113 99.4934 163.839 98.2365 165.565 97.1366C167.448 96.0367 169.331 95.2511 171.528 94.6226C173.725 93.9941 175.922 93.6798 178.119 93.6798C180.943 93.6798 183.454 93.9941 185.808 94.7797C188.162 95.5653 190.359 96.6652 192.399 98.0793L192.242 97.9222C192.869 98.2365 193.183 98.7078 193.654 99.0221C194.125 99.3363 194.125 99.9648 194.125 100.75C194.125 101.222 193.968 101.693 193.654 102.165L190.202 107.978C189.417 109.235 188.633 109.864 187.534 109.864C187.377 109.864 187.063 109.864 186.75 109.707C186.436 109.549 186.122 109.392 185.651 109.078C184.553 108.292 183.297 107.664 182.042 107.193C180.787 106.721 179.374 106.407 177.962 106.407C176.393 106.407 174.824 106.721 173.568 107.35C172.156 107.978 171.057 108.921 170.116 110.021C169.174 111.121 168.39 112.378 167.919 113.949C167.448 115.52 167.134 116.934 167.134 118.663C167.134 120.391 167.448 121.962 167.919 123.376C168.39 124.79 169.174 126.047 170.116 127.147C171.057 128.247 172.156 129.033 173.568 129.661C174.98 130.29 176.393 130.604 177.962 130.604C179.374 130.604 180.787 130.29 182.042 129.818C183.297 129.347 184.866 129.504 185.965 128.719Z" fill="black"/>
<path d="M202.532 83.4924C202.532 83.0218 202.532 82.708 202.532 82.2373C202.532 81.9235 202.687 81.6098 202.843 81.296C202.998 80.9822 203.309 80.8253 203.776 80.6684C204.242 80.5115 204.709 80.5115 205.486 80.5115H214.505C214.971 80.5115 215.438 80.6684 215.749 80.8253C216.06 80.9822 216.371 81.1391 216.526 81.4529C216.682 81.7666 216.837 81.9235 216.837 82.2373C216.837 82.5511 216.993 82.8649 216.993 83.0218V111.419L230.677 96.0435C231.299 95.2591 232.076 94.9453 233.009 94.9453H244.671C246.071 94.9453 246.693 95.5729 246.693 96.6711C246.693 96.9849 246.693 97.1418 246.537 97.2986C246.382 97.4555 246.226 97.7693 245.915 98.0831L230.366 114.713L249.958 140.129C250.269 140.443 250.58 140.757 250.736 141.071C250.891 141.384 250.891 141.698 250.891 142.012C250.891 142.64 250.736 142.953 250.425 143.267C250.114 143.424 249.647 143.581 249.025 143.581H236.119C235.652 143.581 235.341 143.424 234.875 143.11C234.564 142.796 234.097 142.326 233.631 141.541L221.191 123.813L216.993 128.206V140.6C216.993 140.757 216.993 141.071 216.837 141.384C216.837 141.698 216.682 142.012 216.526 142.326C216.371 142.64 216.06 142.953 215.749 143.11C215.438 143.267 214.971 143.424 214.505 143.424H205.02C204.553 143.424 204.242 143.267 203.776 143.11C203.465 142.796 203.154 142.64 202.998 142.326C202.843 142.012 202.687 141.698 202.532 141.384C202.376 141.071 202.376 140.914 202.376 140.914V83.4924H202.532Z" fill="black"/>
<path d="M297.445 137.724C295.275 139.752 292.794 141.467 290.004 142.559C287.213 143.65 284.268 144.274 281.167 144.274C277.757 144.274 274.501 143.65 271.4 142.403C268.3 141.155 265.664 139.44 263.339 137.101C261.014 134.918 259.153 132.267 257.758 129.148C256.363 126.029 255.743 122.754 255.743 119.168C255.743 116.984 256.053 114.801 256.518 112.618C256.983 110.435 257.758 108.564 258.843 106.692C259.773 104.821 261.014 103.106 262.409 101.702C263.804 100.299 265.509 98.8952 267.215 97.8036C268.92 96.7121 270.935 95.9324 272.951 95.3086C274.966 94.6848 277.136 94.373 279.462 94.373C281.632 94.373 283.648 94.6848 285.508 95.1527C287.368 95.6205 289.384 96.5561 291.089 97.4918C292.794 98.5834 294.345 99.6749 295.895 101.078C297.29 102.482 298.53 104.041 299.616 105.757C300.701 107.472 301.476 109.187 302.096 111.215C302.716 113.086 302.871 115.113 302.871 117.14C302.871 118.388 302.871 119.479 302.871 120.415C302.871 121.195 302.561 121.974 302.251 122.442C301.941 122.91 301.321 123.222 300.546 123.534C299.771 123.846 298.53 123.846 296.98 123.846H269.695C270.005 125.405 270.47 126.809 271.245 127.9C272.021 128.992 272.951 129.927 273.881 130.551C274.966 131.175 275.896 131.643 277.136 131.955C278.222 132.267 279.307 132.422 280.392 132.422C281.322 132.422 282.252 132.267 283.183 132.111C284.113 131.955 285.043 131.643 285.973 131.331C286.903 131.019 287.678 130.707 288.454 130.239C289.229 129.771 289.849 129.46 290.314 128.992C290.779 128.68 291.089 128.368 291.399 128.212C291.709 128.056 292.019 127.9 292.329 127.9C292.639 127.9 292.949 128.056 293.259 128.212C293.57 128.368 294.035 128.836 294.345 129.148L298.375 133.67C298.686 133.982 298.841 134.294 298.841 134.606C298.841 134.918 298.996 135.073 298.996 135.385C298.996 135.853 298.841 136.321 298.53 136.633C298.22 137.257 297.91 137.568 297.445 137.724ZM279.307 106.068C278.377 106.068 277.292 106.224 276.516 106.692C275.586 107.16 274.656 107.628 273.881 108.252C273.106 108.875 272.331 109.655 271.71 110.435C271.09 111.215 270.47 112.15 270.16 112.93H289.539C289.074 111.994 288.454 111.059 287.833 110.123C287.213 109.187 286.438 108.564 285.663 107.94C284.888 107.316 283.958 106.848 282.873 106.38C281.787 106.224 280.547 106.068 279.307 106.068Z" fill="black"/>
<path d="M311.188 97.4983C311.188 97.0209 311.345 96.5437 311.501 96.2255C311.658 95.9072 311.971 95.5891 312.284 95.2708C312.597 95.1117 312.91 94.7935 313.223 94.7935C313.536 94.7935 314.005 94.6344 314.318 94.6344H320.109C320.735 94.6344 321.204 94.7935 321.674 95.2708C321.987 95.5891 322.456 96.2254 322.613 96.7027C322.769 97.18 323.082 97.9756 323.395 98.612C323.552 99.4075 323.865 100.044 324.178 100.68C324.96 99.8848 325.743 98.9302 326.525 98.1347C327.308 97.3392 328.09 96.5436 329.029 95.9072C329.968 95.2708 330.907 94.7935 331.846 94.3162C332.942 93.8389 334.037 93.6798 335.446 93.6798C336.854 93.6798 338.106 93.8389 339.202 93.998C340.297 94.1571 341.236 94.4753 342.332 94.9526C343.427 95.4299 344.21 95.9072 345.149 96.5436C346.088 97.1801 347.183 97.8165 348.279 98.7711C349.374 99.4075 350 100.203 350 100.998C350 101.635 349.844 102.271 349.374 102.908L345.462 109.113C344.836 110.067 343.897 110.704 342.958 110.704C342.488 110.704 341.862 110.545 341.236 110.226C340.141 109.113 339.045 108.317 337.95 107.84C336.854 107.363 335.446 107.044 334.037 107.044C333.098 107.044 332.159 107.203 331.377 107.522C330.594 107.84 329.968 108.158 329.342 108.794C328.716 109.272 328.09 109.908 327.621 110.704C327.151 111.499 326.525 112.295 326.056 113.09V141.251C326.056 142.206 325.743 143.001 325.273 143.478C324.804 143.956 324.021 144.274 322.926 144.274H314.162C312.127 144.274 311.188 143.319 311.188 141.251V97.4983Z" fill="black"/>
</svg>
